<svg width="119" height="148" viewBox="0 0 119 148" fill="none" xmlns="http://www.w3.org/2000/svg">
<path d="M118.5 0.5H0.25V147.625H118.5V0.5Z" fill="#3EC6FF"/>
<path fill-rule="evenodd" clip-rule="evenodd" d="M88.23 54.731C88.23 53.637 87.342 52.75 86.246 52.75H32.648C31.552 52.75 30.664 53.637 30.664 54.731V93.201C30.664 94.295 31.552 95.182 32.648 95.182H86.246C87.342 95.182 88.23 94.295 88.23 93.201V54.731Z" stroke="white" stroke-width="2"/>
<path fill-rule="evenodd" clip-rule="evenodd" d="M45.591 72.98C48.474 72.98 50.811 70.649 50.811 67.774C50.811 64.899 48.474 62.568 45.591 62.568C42.708 62.568 40.37 64.899 40.37 67.774C40.37 70.649 42.708 72.98 45.591 72.98Z" stroke="white" stroke-width="2"/>
<path d="M43.146 95.182L60.438 70.89L67.587 80.512L76.783 66.091L88.23 82.693" stroke="white" stroke-width="2"/>
</svg>
